HIERARCHY
ROOT Hips
{
	OFFSET	0.00	0.00	0.00
	CHANNELS 6 Xposition Yposition Zposition Zrotation Xrotation Yrotation
	JOINT Spine
	{
		OFFSET	 0.00	0.01	 0.00
		CHANNELS 3 Zrotation Xrotation Yrotation
		JOINT Spine1
		{
			OFFSET	 0.00	 2.45913012437421	 0.00
			CHANNELS 3 Zrotation Xrotation Yrotation
            JOINT Neck
            {
                OFFSET	 0.00	 2.48462964506057	 0.00
                CHANNELS 3 Zrotation Xrotation Yrotation
                JOINT Head
                {
                    OFFSET	 0.00	 0.927524780924562	 0.00
                    CHANNELS 3 Zrotation Xrotation Yrotation
                    End Site 
                    {
                        OFFSET	 0.00	 1.14999962169752	 0.00
                    }
                }
            }
			JOINT LeftShoulder
			{
				OFFSET	 0.00	 2.48462964506057	 0.00
				CHANNELS 3 Zrotation Xrotation Yrotation
				JOINT LeftUpArm
				{
					OFFSET	 0.00	 1.24881979654096	 0.00
					CHANNELS 3 Zrotation Xrotation Yrotation
					JOINT LeftForeArm
					{
						OFFSET	 0.00	2.59758046908119	 0.00
						CHANNELS 3 Zrotation Xrotation Yrotation
						JOINT LeftHand
						{
							OFFSET	 0.00	2.45542024364365	 0.00
							CHANNELS 3 Zrotation Xrotation Yrotation
							JOINT LeftHandThumb 
							{
								OFFSET	 0.00	0.00	 0.00
								CHANNELS 3 Zrotation Xrotation Yrotation
								End Site
								{
									OFFSET	 0.00	0.00	1.00000003353624
								}
							}
							JOINT L_Wrist_End 
							{
								OFFSET	 0.00	0.99999967115358	 0.00
								CHANNELS 3 Zrotation Xrotation Yrotation
								End Site 
								{
									OFFSET	 0.00	 0.00	 0.00
								}
							}
						}
					}
				}
			}
			JOINT RightShoulder
			{
				OFFSET	 0.00	 2.48462964506057	 0.00
				CHANNELS 3 Zrotation Xrotation Yrotation
				JOINT RightUpArm
				{
					OFFSET	 0.00	 1.24881979654096	 0.00
					CHANNELS 3 Zrotation Xrotation Yrotation
					JOINT RightForeArm
					{
						OFFSET	 0.00	2.59758046908119	 0.00
						CHANNELS 3 Zrotation Xrotation Yrotation
						JOINT RightHand
						{
							OFFSET	 0.00	2.45542024364365	 0.00
							CHANNELS 3 Zrotation Xrotation Yrotation
							JOINT RightHandThumb 
							{
								OFFSET	 0.00	0.00	 0.00
								CHANNELS 3 Zrotation Xrotation Yrotation
								End Site
								{
									OFFSET	 0.00	0.00	1.00000003353624
								}
							}
							JOINT R_Wrist_End 
							{
								OFFSET	 0.00	0.99999967115358	 0.00
								CHANNELS 3 Zrotation Xrotation Yrotation
								End Site 
								{
									OFFSET	 0.00	 0.00	 0.00
								}
							}
						}
					}
				}
			}
		}
	}
	JOINT LeftUpLeg
	{
		OFFSET	 1.2719394002717	 0.00	 0.00
		CHANNELS 3 Zrotation Xrotation Yrotation
		JOINT LeftLowLeg
		{
			OFFSET	 0.00	-4.3429100912261	 0.00
			CHANNELS 3 Zrotation Xrotation Yrotation
			JOINT LeftFoot
			{
				OFFSET	 0.00	-4.48767017425826	 0.00
				CHANNELS 3 Zrotation Xrotation Yrotation
				JOINT LeftToeBase
                {
                    OFFSET	 0.00	0.00	 1.51507020887566
                    CHANNELS 3 Zrotation Xrotation Yrotation
                    End Site 
                    {
                        OFFSET	 0.00	0.00	 0.75000010571191
                    }
                }
			}
		}
	}
	JOINT RightUpLeg
	{
		OFFSET	 -1.2719393604653	 0.00	 0.00
		CHANNELS 3 Zrotation Xrotation Yrotation
		JOINT RightLowLeg
		{
			OFFSET	 0.00	-4.3429100912261	 0.00
			CHANNELS 3 Zrotation Xrotation Yrotation
			JOINT RightFoot
			{
				OFFSET	 0.00	-4.48767017425826	 0.00
				CHANNELS 3 Zrotation Xrotation Yrotation
				JOINT RightToeBase
                {
                    OFFSET	 0.00	0.00	 1.51507020887566
                    CHANNELS 3 Zrotation Xrotation Yrotation
                    End Site 
                    {
                        OFFSET	 0.00	0.00	 0.749999965609858
                    }
                }   
			}
		}
	}
}
MOTION 
Frames:	8 
Frame Time: 0.02 
  -5.597849731445312 11.74280029296875 9.437139892578125 -138.714 85.0132 131.588 7.60343 -8.28909 -5.79474 18.5791 21.9278 -7.67606 -11.0184 31.5606 5.59006 1.42397 -46.4728 -3.74346 -112.7729 -4.44897 1.99856 -47.4273 5.34837 42.9402 0.0 44.3601 0.0 18.1615 -6.03631 8.65241 0.0 0.0 0.0 0.0 0.0 0.0 111.6248 -1.02867 -1.54482 31.9598 12.0307 -9.58704 0.0 35.6199 0.0 -2.92138 -1.68737 28.0988 0.0 0.0 0.0 0.0 0.0 0.0 4.83671 -9.45967 -1.79959 0.0 58.4756 0.0 -2.37393 16.4043 -22.8142 0.0 -37.8711 0.0 4.86666 -19.107 3.24688 0.0 21.5793 0.0 18.0406 8.83157 -6.6485 0.0 -25.764 0.0 
  -5.667659912109375 11.61719970703125 9.461439819335938 -139.273 85.2757 132.995 7.45434 -8.33173 -5.89234 19.0493 22.4494 -7.86196 -10.9183 31.181 5.3623 1.21068 -46.5051 -4.13374 -112.7624 -4.52634 1.98985 -47.5389 5.02013 42.8637 0.0 43.6628 0.0 17.9079 -6.55691 5.81919 0.0 0.0 0.0 0.0 0.0 0.0 111.4452 -0.751672 -1.40236 31.9508 11.9747 -9.32484 0.0 34.4879 0.0 -2.97405 -1.69468 28.0059 0.0 0.0 0.0 0.0 0.0 0.0 4.92918 -11.6506 -1.57956 0.0 61.9901 0.0 -2.46309 16.29454 -20.5633 0.0 -37.6385 0.0 4.75485 -17.9519 2.81729 0.0 21.3888 0.0 17.9341 8.08555 -6.76946 0.0 -25.8928 0.0 
  -5.737550048828125 11.49199951171875 9.489210205078125 -141.999 85.437 136.192 7.16346 -8.3649 -5.60886 19.6991 22.5884 -7.46468 -10.6319 31.2672 4.64482 0.978335 -46.6741 -4.58866 -112.8561 -4.1322 2.15363 -47.5825 4.48629 42.847 0.0 43.1281 0.0 17.1884 -6.93641 5.94457 0.0 0.0 0.0 0.0 0.0 0.0 111.2686 -0.963865 -1.47449 31.8154 11.8679 -8.82086 0.0 33.4285 0.0 -3.06644 -2.02877 27.9424 0.0 0.0 0.0 0.0 0.0 0.0 5.01039 -13.6439 -1.09051 0.0 64.5194 0.0 -2.15157 14.39421 -18.0111 0.0 -37.7332 0.0 4.79134 -16.8155 2.80604 0.0 20.8253 0.0 17.5218 7.50076 -7.21481 0.0 -25.8275 0.0 
  -5.799829711914063 11.369100341796875 9.5210498046875 -145.002 85.7239 139.692 7.07089 -8.51089 -5.52572 19.6652 23.1257 -7.49878 -10.4148 31.1473 4.34291 0.951955 -46.7563 -4.66759 -112.628296 -4.37868 1.9894 -47.7192 4.14885 42.6479 0.0 42.5356 0.0 16.6479 -6.92386 5.23274 0.0 0.0 0.0 0.0 0.0 0.0 111.4093 -0.34761 -1.63801 31.6393 11.5866 -8.23405 0.0 32.3327 0.0 -3.03456 -2.20672 27.6334 0.0 0.0 0.0 0.0 0.0 0.0 4.88893 -15.3929 -0.802685 0.0 66.0796 0.0 -1.27094 12.7005005 -15.8785 0.0 -37.4505 0.0 4.6632 -15.4573 2.37839 0.0 19.9745 0.0 16.8874 7.07406 -7.60814 0.0 -25.684399 0.0 
  -5.856129760742188 11.250699462890625 9.553889770507812 -149.528 86.0038 144.611 6.88653 -8.49379 -5.26553 19.7292 23.3419 -7.21061 -10.1536 31.0703 3.85293 0.786145 -46.6635 -4.90595 -112.4496 -4.39537 1.89554 -47.8265 3.75563 42.5213 0.0 42.1184 0.0 16.5507 -6.69947 5.16623 0.0 0.0 0.0 0.0 0.0 0.0 111.322296 -0.127923 -1.64705 31.7047 11.272 -7.8066 0.0 31.143 0.0 -3.04417 -2.42364 27.3696 0.0 0.0 0.0 0.0 0.0 0.0 4.60013 -17.0301 -0.655229 0.0 66.7726 0.0 0.0871434 11.55487 -14.0724 0.0 -37.1338 0.0 4.40913 -14.1526 1.73659 0.0 19.0711 0.0 16.2365 6.8430796 -7.68798 0.0 -25.6044 0.0 
  -5.908809814453125 11.13449951171875 9.585170288085937 -155.116 86.1389 150.602 6.78514 -8.55496 -5.07684 19.6201 23.4547 -7.00625 -10.1214 31.0053 3.71215 0.696453 -46.5034 -5.11717 -112.193 -4.57399 1.6991 -47.8951 3.24085 42.2095 0.0 41.9446 0.0 16.352 -6.43918 5.19654 0.0 0.0 0.0 0.0 0.0 0.0 111.244 0.0721495 -1.64294 31.9454 11.0682 -7.38616 0.0 29.8821 0.0 -3.2436 -2.25486 26.6493 0.0 0.0 0.0 0.0 0.0 0.0 4.20875 -18.6627 -0.723859 0.0 66.7298 0.0 1.26758 11.00087 -12.2467 0.0 -37.2449 0.0 4.17135 -12.921 1.209 0.0 18.0463 0.0 15.7604 6.7089596 -7.73679 0.0 -25.6358 0.0 
  -5.957869873046875 11.0181005859375 9.61218994140625 -160.002 86.1806 155.775 6.81508 -8.50898 -4.80232 19.3857 23.2701 -6.66294 -10.0705 31.2484 3.4484 0.599647 -46.5932 -5.26578 -111.9386 -4.72083 1.65668 -47.841 2.64502 41.6955 0.0 42.112 0.0 16.0266 -6.47304 5.00589 0.0 0.0 0.0 0.0 0.0 0.0 111.1681 0.312526 -1.33031 32.2858 10.4143 -7.32867 0.0 28.8819 0.0 -3.57731 -2.59069 25.9808 0.0 0.0 0.0 0.0 0.0 0.0 3.88631 -20.1046 -0.798941 0.0 65.9874 0.0 1.46936 10.97412 -10.69 0.0 -37.3275 0.0 4.04181 -11.6278 0.954278 0.0 16.8492 0.0 15.4425 6.6013203 -7.82531 0.0 -25.6203 0.0 
  -6.007100219726563 10.904200439453126 9.632139892578126 -165.226 85.8683 161.277 6.82719 -8.69041 -4.54445 19.2323 22.9937 -6.30287 -10.1993 31.4211 3.41652 0.458097 -46.6695 -5.48985 -111.6256 -4.94035 2.76096 -47.7561 2.95068 40.6855 0.0 42.4644 0.0 16.538 -6.56262 4.54295 0.0 0.0 0.0 0.0 0.0 0.0 111.2278 0.00169949 -2.94692 32.0005 11.4795 -6.44363 0.0 27.7736 0.0 -3.96906 -2.4367 25.8078 0.0 0.0 0.0 0.0 0.0 0.0 3.67575 -21.7108 -0.964322 0.0 64.6828 0.0 1.17562 10.76265 -9.8246 0.0 -37.066902 0.0 4.04818 -10.6829 0.822483 0.0 15.6839 0.0 15.1757 6.4153795 -8.08562 0.0 -25.737999 0.0 
